<?xml version="1.0" standalone="no"?>
<!DOCTYPE svg PUBLIC "-//W3C//DTD SVG 20010904//EN"
 "http://www.w3.org/TR/2001/REC-SVG-20010904/DTD/svg10.dtd">
<svg version="1.0" xmlns="http://www.w3.org/2000/svg"
 width="1095.000000pt" height="1095.000000pt" viewBox="0 0 1095.000000 1095.000000"
 preserveAspectRatio="xMidYMid meet">
<metadata>
Created by potrace 1.14, written by Peter Selinger 2001-2017
</metadata>
<g transform="translate(0.000000,1095.000000) scale(0.100000,-0.100000)"
fill="#000000" stroke="none">
<path d="M2778 10753 c1487 -2 3917 -2 5400 0 1483 1 267 2 -2703 2 -2970 0
-4184 -1 -2697 -2z"/>
<path d="M3469 10076 c-7 -6 -102 -19 -149 -20 -25 0 -81 3 -125 6 -44 4 -64
4 -45 -1 19 -4 44 -12 55 -19 16 -9 4 -12 -70 -12 -95 -1 -93 -11 5 -25 75
-11 41 -23 -70 -26 l-85 -2 65 -10 65 -10 -35 -14 c-19 -9 -37 -18 -40 -22
-20 -27 -67 -51 -101 -51 -21 0 -39 -5 -41 -12 -3 -8 -18 -12 -41 -10 -34 3
-134 -26 -187 -56 l-25 -14 30 7 c17 3 38 8 49 12 11 3 16 1 12 -5 -3 -6 -19
-13 -36 -17 -16 -3 -47 -19 -68 -35 -22 -16 -69 -43 -104 -60 -87 -44 -160
-99 -248 -189 -99 -101 -330 -387 -330 -409 0 -4 -11 -19 -24 -31 -13 -13 -34
-45 -46 -72 -11 -28 -27 -52 -34 -55 -8 -3 -17 -19 -20 -36 -3 -17 -24 -74
-45 -127 -21 -53 -42 -112 -46 -130 -5 -25 -10 -30 -16 -20 -6 10 -9 4 -9 -18
0 -18 -4 -33 -10 -33 -5 0 -10 -11 -10 -25 0 -14 -4 -25 -8 -25 -4 0 -13 -26
-20 -57 -29 -138 -32 -142 -27 -41 3 53 12 115 20 139 11 30 12 45 5 55 -20
23 71 259 148 384 12 19 26 44 31 55 5 11 20 36 33 55 39 58 40 60 24 54 -9
-3 -16 -10 -16 -15 0 -5 -17 -35 -37 -66 -46 -70 -59 -91 -74 -120 -11 -20
-29 -31 -29 -18 0 27 205 358 234 377 18 12 31 9 18 -4 -14 -14 -16 -52 -3
-43 5 3 13 20 16 38 6 26 42 87 65 107 3 3 18 23 35 45 32 44 86 103 157 174
51 50 57 61 31 61 -29 0 -107 -70 -254 -227 -37 -39 -208 -288 -252 -364 -13
-24 -41 -72 -60 -107 -91 -158 -194 -391 -204 -459 -3 -24 -9 -43 -13 -43 -4
0 -7 -13 -7 -30 0 -48 12 -35 36 43 44 136 137 354 148 344 2 -3 -22 -90 -55
-193 -62 -197 -90 -312 -116 -475 -23 -138 -27 -199 -16 -199 6 0 10 -26 10
-57 1 -74 17 -218 34 -308 19 -93 19 -37 1 95 -31 224 -14 488 40 650 l25 75
-5 -69 c-8 -94 -7 -571 1 -672 8 -98 -2 -198 -19 -191 -12 4 -12 -68 -1 -101
4 -14 85 44 112 81 13 17 38 14 27 -3 -9 -15 7 -40 26 -40 10 0 26 11 35 24 8
14 22 22 29 20 19 -8 55 14 55 32 0 9 7 14 18 12 9 -2 16 -11 16 -21 -3 -27
16 -20 55 22 20 22 49 43 65 47 34 8 76 -12 76 -38 0 -10 7 -18 15 -18 8 0 15
4 15 9 0 5 6 11 14 14 22 9 38 -119 20 -155 -8 -15 -18 -29 -23 -33 -6 -3 -35
8 -66 25 -30 16 -62 30 -70 30 -40 0 -21 -64 23 -75 33 -8 152 -129 152 -154
0 -11 5 -23 10 -26 6 -4 8 -10 5 -15 -3 -4 4 -29 15 -55 25 -59 25 -75 0 -75
-51 0 -36 -82 22 -127 39 -29 44 -31 70 -17 34 18 56 18 92 -1 15 -8 38 -15
49 -15 58 0 167 -51 214 -101 20 -21 40 -39 43 -39 3 0 30 -22 59 -50 29 -27
61 -50 72 -50 10 0 21 -5 24 -11 4 -6 13 -8 20 -5 7 2 23 -3 36 -12 12 -9 42
-17 66 -18 24 -2 53 -10 65 -18 12 -9 30 -16 40 -16 10 0 18 -4 18 -10 0 -5
12 -10 28 -10 28 -1 59 -22 77 -54 16 -28 30 -18 28 19 -1 19 1 34 5 32 14 -4
58 38 75 72 23 45 23 91 0 91 -15 0 -15 1 1 13 17 12 17 14 2 20 -18 7 -22 42
-6 52 6 3 13 -1 16 -9 3 -9 12 -16 20 -16 8 0 14 -3 14 -7 0 -5 14 -17 30 -28
38 -25 39 -45 2 -45 -21 0 -28 -5 -29 -22 -1 -11 -8 -25 -15 -29 -10 -7 -10
-9 0 -9 6 0 12 -11 12 -25 0 -24 18 -33 34 -17 4 4 11 7 14 7 4 0 18 8 32 18
13 9 20 17 14 17 -6 0 -10 16 -9 35 0 19 -3 35 -8 35 -4 0 -6 4 -3 8 3 4 28 8
56 7 40 -1 53 -6 66 -23 9 -13 25 -31 36 -42 31 -28 172 -100 198 -100 42 0
60 -18 60 -60 0 -49 -11 -78 -44 -113 -14 -15 -26 -31 -26 -36 0 -8 -37 -40
-65 -57 -10 -6 -23 -19 -29 -30 -6 -10 -13 -21 -16 -24 -3 -3 -21 -30 -40 -60
-19 -30 -40 -59 -47 -63 -7 -4 -13 -15 -13 -22 0 -8 -4 -15 -10 -15 -5 0 -10
-5 -10 -11 0 -6 -18 -48 -41 -93 -47 -94 -99 -221 -99 -242 0 -30 -131 -197
-144 -183 -5 5 27 173 42 224 5 17 19 50 31 75 11 24 21 49 21 56 0 7 4 14 8
16 15 6 52 87 38 82 -8 -3 -16 -13 -19 -22 -3 -9 -19 -39 -34 -67 -57 -100
-95 -219 -112 -346 -10 -71 -69 -227 -70 -185 -1 10 -11 28 -24 40 -12 11 -33
37 -46 56 -32 46 -83 99 -97 100 -5 0 -19 8 -30 18 -28 26 -123 70 -169 78
-22 4 -44 10 -50 14 -18 13 -114 42 -158 47 -23 2 -44 8 -47 12 -6 9 -129 19
-345 27 -122 5 -156 10 -183 25 -18 10 -43 19 -56 19 -43 0 -26 -83 61 -295
l28 -70 -2 -430 c-1 -368 -4 -438 -18 -485 -9 -30 -22 -74 -28 -97 -6 -24 -17
-43 -23 -43 -20 0 -57 -196 -59 -310 0 -58 -5 -116 -9 -130 -4 -14 -10 -47
-12 -75 -3 -27 -9 -94 -14 -148 -19 -188 -9 -349 25 -402 7 -11 15 -34 19 -52
4 -17 15 -38 25 -47 17 -16 20 -15 47 11 27 27 174 123 188 123 4 0 25 12 47
26 22 14 46 23 52 21 7 -3 0 -10 -15 -16 -33 -13 -37 -26 -5 -16 12 3 60 9
107 12 47 3 90 8 95 13 12 10 79 5 124 -9 22 -7 39 -7 46 -1 8 7 16 2 25 -15
8 -15 22 -25 36 -25 13 0 40 -11 60 -25 24 -16 51 -25 75 -25 28 0 39 -4 39
-15 0 -12 17 -15 93 -15 65 -1 98 -5 111 -15 15 -11 51 -15 148 -15 79 0 128
-4 128 -10 0 -6 73 -10 200 -10 l200 0 0 -55 0 -55 55 0 55 0 0 -80 c0 -54 4
-80 12 -80 6 0 8 -3 5 -6 -4 -4 2 -19 13 -34 16 -23 20 -45 20 -114 0 -70 3
-86 15 -86 11 0 15 -11 15 -39 0 -41 -5 -45 -75 -57 -16 -3 -31 -9 -33 -14 -8
-22 -82 20 -82 47 0 9 -16 13 -59 13 -32 0 -86 3 -120 6 -57 6 -61 5 -61 -14
0 -11 7 -23 16 -26 8 -3 12 -10 9 -16 -12 -20 27 -68 65 -79 20 -6 54 -22 74
-36 20 -14 39 -25 42 -25 19 0 74 -56 79 -81 4 -16 14 -33 22 -38 9 -4 16 -20
16 -34 0 -15 3 -24 7 -22 5 3 25 -11 46 -30 20 -19 41 -35 45 -35 5 0 22 -13
37 -30 16 -16 34 -30 41 -30 6 0 24 -9 39 -19 37 -27 96 -35 112 -16 7 9 8 15
2 15 -5 0 -13 36 -17 80 -4 44 -11 80 -15 80 -4 0 -11 33 -15 73 -6 74 -21
127 -36 127 -4 0 -11 10 -14 21 -6 17 -9 19 -16 8 -6 -9 -9 5 -9 39 0 36 -4
52 -13 52 -10 0 -17 30 -25 103 -16 138 -16 137 13 137 23 0 25 4 25 40 0 32
4 40 18 40 14 0 17 7 14 40 -2 23 -9 40 -17 40 -6 0 -20 18 -30 40 -10 22 -22
37 -26 34 -5 -3 -9 15 -9 40 0 25 5 46 12 48 9 3 9 13 -2 39 -8 19 -17 36 -20
39 -18 15 -48 80 -37 80 7 1 2 9 -11 19 -12 11 -22 29 -22 40 0 12 -6 21 -14
21 -8 0 -18 9 -21 21 -4 11 -9 18 -12 15 -8 -7 -33 20 -33 36 0 7 -18 32 -40
56 -22 24 -40 49 -40 57 0 8 -5 15 -10 15 -6 0 -20 15 -31 34 -19 32 -22 33
-67 28 -26 -3 -48 -9 -50 -13 -8 -19 -30 -7 -42 21 -7 16 -10 32 -9 35 2 4 -3
10 -12 15 -12 7 -17 28 -18 87 -2 82 -6 97 -23 87 -6 -4 -8 -3 -5 3 3 5 -7 24
-22 41 -25 27 -34 30 -64 25 -29 -4 -36 -2 -42 16 -5 17 -14 21 -46 21 -21 0
-39 -4 -39 -8 0 -12 -46 -32 -74 -32 -21 0 -66 -47 -66 -70 0 -5 -4 -10 -10
-10 -5 0 -10 7 -10 15 0 19 -14 19 -34 0 -8 -8 -22 -15 -30 -15 -14 0 -20 -12
-17 -32 0 -5 -2 -7 -7 -7 -20 3 -31 -3 -37 -21 -3 -11 -12 -20 -19 -20 -8 0
-13 -18 -15 -51 -1 -28 2 -49 6 -46 5 3 19 -9 31 -28 l23 -33 127 -1 c81 -1
129 -6 133 -13 7 -11 20 -15 79 -22 14 -2 28 -4 31 -5 4 0 12 -14 19 -31 7
-16 16 -30 21 -30 5 0 9 -8 9 -18 0 -14 -8 -17 -40 -17 -22 0 -40 3 -40 7 0 4
-18 11 -40 14 -22 4 -40 10 -40 14 0 16 -100 29 -267 34 -95 4 -199 9 -232 13
-55 5 -61 4 -62 -13 0 -18 -1 -18 -8 0 -7 19 -8 19 -15 1 -6 -16 -9 -17 -16
-5 -5 8 -5 21 1 32 5 10 7 18 5 18 -3 0 -12 -13 -21 -30 -9 -16 -20 -30 -26
-30 -6 0 -7 4 -4 10 4 7 -3 7 -22 0 l-28 -10 25 20 c37 29 34 27 115 137 142
193 334 329 490 349 50 6 95 24 150 62 66 44 125 105 125 127 0 8 14 24 30 37
17 12 30 27 30 34 0 6 7 17 15 24 22 18 19 82 -5 113 -20 25 -71 131 -85 178
l-7 24 25 -24 c14 -13 31 -21 38 -19 7 2 -11 23 -39 48 -29 24 -59 57 -67 74
-14 27 -10 25 24 -14 22 -24 43 -41 47 -37 4 3 1 14 -7 23 -13 16 -12 16 11 4
13 -7 31 -19 38 -27 7 -7 20 -13 27 -13 8 0 21 -10 31 -22 13 -18 15 -19 10
-4 -6 18 -5 18 21 1 16 -10 46 -33 68 -50 42 -33 73 -53 168 -103 72 -39 75
-28 4 15 -29 17 -61 41 -71 52 -11 12 -23 21 -28 21 -19 0 -181 127 -206 162
-18 25 -11 23 33 -12 21 -16 44 -30 51 -30 7 0 14 -4 16 -8 10 -24 244 -170
255 -159 6 6 -45 53 -77 72 -24 14 -74 58 -84 73 -5 9 4 8 31 -4 46 -20 125
-45 129 -41 2 1 -51 29 -117 62 -134 65 -170 98 -216 195 -15 33 -33 57 -41
56 -22 -2 -99 198 -111 289 -22 153 -8 294 37 381 14 27 54 68 118 119 53 43
104 86 112 96 9 11 21 19 26 19 5 0 16 8 25 18 9 10 35 26 58 36 23 10 40 23
36 29 -3 5 15 29 41 52 25 24 46 39 46 34 0 -5 5 -9 10 -9 6 0 10 6 8 13 -2 9
24 56 59 106 16 23 3 -71 -16 -114 -5 -11 -12 -28 -14 -37 -3 -9 -16 -18 -29
-21 -16 -3 -12 -5 13 -6 29 -1 38 4 47 24 7 14 12 40 12 58 1 18 9 60 18 95
l18 63 12 -73 c6 -40 14 -95 17 -121 9 -67 29 -56 33 19 2 32 -2 107 -8 166
-11 106 -7 168 11 168 5 0 9 -48 9 -107 0 -60 5 -137 10 -173 5 -36 11 -89 14
-119 4 -30 8 -56 10 -58 2 -2 7 46 11 106 7 114 -1 271 -15 271 -19 0 -31 244
-14 271 5 8 9 75 9 149 l0 135 30 -3 c75 -8 186 -2 245 13 36 9 88 20 115 25
108 19 311 99 390 154 39 27 122 66 128 60 3 -3 42 2 88 10 46 8 165 19 264
26 230 14 248 16 261 35 12 17 7 65 -7 65 -5 0 -9 6 -9 14 0 9 -7 12 -22 9
-13 -3 -19 -1 -13 4 22 18 94 132 125 198 29 60 110 351 110 394 0 8 7 22 15
31 10 12 16 52 20 150 3 74 8 136 10 139 10 9 16 -9 22 -63 4 -35 10 -55 17
-53 13 4 13 5 16 90 1 34 4 56 7 50 10 -25 25 -13 19 15 -4 17 -3 22 2 14 12
-18 48 -10 44 9 -1 9 3 7 13 -5 8 -11 15 -26 15 -33 0 -7 4 -21 9 -31 19 -35
71 -410 73 -527 1 -22 -2 -91 -5 -152 -6 -110 4 -150 18 -75 4 20 11 42 17 49
12 15 35 179 44 318 6 102 -2 197 -32 383 -7 45 14 41 22 -5 4 -21 13 -47 22
-58 13 -18 14 -17 8 20 -3 22 -6 45 -6 51 0 5 -8 19 -18 30 -21 23 -42 98 -32
115 5 7 10 0 15 -19 3 -17 15 -48 25 -69 17 -34 19 -35 20 -13 0 14 -4 41 -10
60 -13 45 6 68 40 50 12 -6 31 -10 41 -7 14 4 21 -1 25 -21 3 -15 15 -61 25
-104 10 -42 19 -90 19 -106 0 -17 5 -32 10 -34 24 -8 11 -378 -16 -467 -5 -15
-3 -22 3 -18 6 4 16 35 22 69 7 35 17 83 22 108 13 57 13 213 -1 315 -6 44
-13 107 -15 140 -3 33 -7 80 -10 105 -2 25 -2 39 1 32 3 -6 10 -9 16 -6 5 3
12 -3 15 -15 3 -12 9 -21 14 -21 5 0 9 -10 9 -22 0 -13 7 -54 16 -93 30 -138
42 -286 37 -445 -7 -245 -8 -248 -15 -243 -5 2 -8 -2 -8 -11 0 -23 -37 -104
-70 -153 -17 -24 -30 -51 -30 -59 0 -7 -6 -14 -12 -15 -7 0 -3 -4 10 -9 22 -9
22 -11 7 -40 -14 -27 -14 -30 0 -30 8 0 15 -9 15 -20 0 -20 0 -20 29 1 16 12
44 42 62 68 56 77 66 84 108 76 42 -9 58 -9 171 -1 47 4 118 8 159 11 58 3 79
9 97 26 l22 21 4 -24 c2 -12 1 -34 -3 -48 -21 -75 -15 -77 20 -5 22 44 40 74
40 68 2 -23 37 -14 51 12 17 32 28 32 36 -1 9 -34 0 -83 -25 -135 -24 -50 -24
-49 -11 -49 6 0 10 8 10 17 0 13 3 14 12 5 8 -8 8 -15 -1 -26 -7 -8 -11 -23
-9 -33 3 -18 58 120 58 146 0 8 10 25 22 38 18 19 21 35 22 107 1 46 4 87 8
91 6 7 24 -168 20 -192 -2 -7 1 -13 6 -13 13 0 21 85 12 125 -4 19 -4 58 0 87
9 62 15 28 11 -59 -4 -84 16 -62 24 26 8 86 2 192 -21 371 -14 111 -23 153
-59 268 -9 30 -15 56 -12 58 4 5 51 -98 66 -146 6 -19 18 -84 27 -145 24 -165
12 -520 -22 -627 -3 -10 -2 -18 3 -18 15 0 72 180 89 280 36 212 -26 610 -130
832 -31 66 -44 119 -26 101 24 -23 130 -299 130 -340 0 -7 8 -34 17 -60 9 -26
24 -95 34 -153 21 -130 24 -93 4 57 -18 142 -43 231 -115 422 -38 102 -57 165
-54 181 3 14 -4 49 -16 79 -24 61 -21 78 4 29 l17 -33 -7 50 c-4 28 -8 57 -9
66 -3 34 -71 136 -131 195 -38 38 -64 72 -64 84 0 48 -82 151 -139 174 -22 8
-42 20 -46 26 -3 6 -11 8 -16 5 -5 -4 -9 10 -9 29 0 19 -7 41 -15 50 -8 8 -15
19 -15 25 0 11 -20 51 -30 61 -3 3 -23 28 -44 55 -64 80 -253 262 -314 302
-107 70 -147 86 -298 120 -12 3 -42 23 -65 44 -89 81 -208 119 -384 124 -66 2
-138 8 -160 14 -68 18 -215 24 -295 12 -41 -6 -120 -18 -175 -26 -55 -8 -127
-21 -160 -29 -60 -13 -155 -39 -400 -106 -44 -12 -104 -27 -133 -32 -53 -10
-54 -10 -108 28 -30 22 -67 46 -82 54 -15 8 -29 18 -32 21 -5 6 -74 26 -120
35 -14 3 -34 9 -45 14 -24 11 -77 17 -250 30 -71 5 -155 14 -185 19 -63 11
-85 13 -91 7z m-1862 -1588 c-3 -8 -6 -5 -6 6 -1 11 2 17 5 13 3 -3 4 -12 1
-19z m4997 -248 c4 -40 3 -49 -4 -33 -5 13 -12 46 -15 75 -4 35 -2 46 4 33 4
-11 11 -45 15 -75z m33 68 c-3 -8 -6 -5 -6 6 -1 11 2 17 5 13 3 -3 4 -12 1
-19z m-112 -93 c19 -53 36 -107 36 -119 1 -12 4 -6 8 14 6 34 6 34 28 -31 13
-36 21 -74 19 -85 -17 -90 -28 -177 -23 -194 3 -11 2 -20 -3 -20 -4 0 -11 -31
-14 -70 -4 -38 -11 -72 -17 -75 -5 -4 -9 -16 -9 -28 0 -32 -20 -97 -29 -97 -4
0 -2 42 6 93 14 97 17 200 7 277 -8 70 -42 300 -51 350 -8 43 -6 96 3 87 2 -2
20 -48 39 -102z m195 17 c6 -20 17 -82 25 -137 10 -77 13 -89 14 -50 1 69 15
47 35 -55 37 -198 41 -291 16 -405 -12 -55 -37 -115 -48 -115 -4 -1 -35 -3
-68 -5 l-62 -5 9 37 c29 120 49 265 52 378 2 116 20 132 24 23 2 -40 6 -89 10
-108 3 -19 8 -44 10 -54 7 -41 13 -27 13 31 0 33 2 87 4 119 2 32 1 42 -1 22
-6 -53 -23 -48 -23 7 0 24 -4 66 -10 92 -26 132 -38 279 -22 269 6 -4 16 -24
22 -44z m125 -47 c10 -46 22 -82 26 -80 13 8 19 -10 34 -97 15 -83 23 -421 12
-465 -7 -28 8 -30 23 -4 12 23 29 261 18 255 -5 -3 -8 15 -8 39 0 24 -3 66 -6
93 -12 88 7 38 37 -98 16 -73 32 -169 36 -213 4 -47 12 -85 20 -94 8 -7 12
-20 9 -28 -3 -8 -6 -21 -6 -29 0 -10 -12 -14 -40 -14 -22 0 -40 5 -40 10 0 6
-9 10 -20 10 -11 0 -20 7 -20 15 0 20 -10 19 -25 -2 -13 -17 -51 -11 -40 7 3
5 7 42 9 82 13 259 21 351 28 323 7 -29 7 -29 4 5 -8 80 -29 189 -37 185 -4
-3 -10 -1 -13 4 -10 15 -33 181 -26 181 4 0 15 -38 25 -85z m-743 20 c6 -7 9
-7 8 0 -4 19 0 35 9 35 5 0 12 -15 16 -32 3 -18 12 -60 20 -93 27 -118 36
-290 25 -470 -6 -98 -15 -174 -21 -180 -9 -7 -10 -2 -5 19 12 48 16 146 7 146
-4 0 -11 56 -15 125 -3 69 -11 147 -16 173 -5 26 -11 67 -14 92 -2 25 -11 76
-20 113 -9 38 -15 80 -15 95 1 21 2 22 6 7 3 -11 9 -24 15 -30z m685 -26 c12
-15 36 -166 24 -153 -8 8 -50 158 -50 179 0 14 2 16 6 5 3 -8 12 -22 20 -31z
m154 -27 c34 -74 46 -113 58 -191 16 -103 0 -93 -31 20 -29 108 -51 181 -63
212 -4 9 -3 17 1 17 5 0 21 -26 35 -58z m121 -10 c18 -37 42 -118 60 -202 10
-51 1 -217 -12 -204 -5 5 -11 20 -13 34 -13 66 -17 80 -77 269 -22 71 -26 111
-10 111 6 0 10 9 10 20 0 29 23 15 42 -28z m113 -31 c-3 -5 2 -17 11 -26 9 -8
14 -24 11 -35 -3 -10 0 -21 6 -23 9 -3 9 -10 1 -28 -10 -22 -12 -21 -27 26 -8
28 -18 73 -21 100 -6 49 -6 50 9 22 9 -15 13 -32 10 -36z m-1386 -96 c0 -175
-63 -393 -133 -458 -11 -9 -16 -20 -13 -24 17 -16 99 89 115 148 16 53 14 3
-2 -71 -8 -36 -17 -73 -21 -83 -4 -10 -2 -24 5 -32 10 -13 10 -19 -3 -33 -8
-9 -19 -30 -22 -45 -5 -18 -12 -26 -21 -23 -9 3 -19 -7 -28 -27 -20 -44 -37
-63 -63 -71 -27 -9 -183 13 -183 25 0 5 -10 4 -21 -3 -18 -11 -23 -11 -27 1
-3 10 -6 11 -12 1 -5 -8 -33 -15 -64 -17 -48 -2 -56 -1 -56 15 0 10 5 23 12
30 9 9 9 12 0 12 -7 0 -12 -4 -12 -9 0 -6 -16 -22 -36 -37 -26 -20 -38 -24
-43 -15 -4 6 -15 9 -24 5 -11 -4 -17 -1 -17 7 -1 9 -4 8 -11 -3 -9 -17 -39
-26 -39 -12 0 3 11 20 24 37 13 18 34 56 46 85 13 28 26 52 30 52 4 0 6 10 6
23 -1 13 4 21 12 19 9 -2 12 4 7 17 -3 11 0 21 8 24 7 3 19 24 26 48 8 24 24
74 37 110 12 37 20 70 16 73 -3 4 2 4 12 0 14 -5 17 -4 12 5 -10 15 12 71 28
71 6 0 5 4 -3 9 -11 7 -10 13 5 35 20 26 34 33 34 16 0 -19 19 -10 26 12 l7
23 9 -25 c12 -33 3 -219 -13 -254 -7 -15 -18 -25 -26 -22 -7 3 -13 1 -13 -5 0
-5 -18 -37 -40 -70 -22 -33 -40 -64 -40 -68 0 -4 -8 -16 -18 -27 -24 -25 -92
-127 -92 -136 0 -17 26 -5 46 20 37 47 114 161 114 167 0 4 7 13 15 22 9 8 19
28 22 44 3 19 12 29 23 29 10 0 23 13 31 33 l14 32 6 -55 6 -55 1 62 c1 34 6
64 11 67 4 3 11 23 14 43 4 21 16 57 27 80 11 23 20 47 20 53 0 16 17 12 25
-7 7 -17 8 -16 15 2 5 11 9 39 9 62 1 23 5 44 10 48 17 10 23 -36 18 -124 l-6
-86 14 90 c7 50 17 101 23 115 l10 25 7 -28 c9 -33 24 -19 26 23 l1 25 8 -25
c4 -14 8 -55 9 -92 1 -37 6 -70 11 -73 6 -4 10 28 10 89 0 79 3 96 15 96 9 0
15 10 16 23 1 21 1 21 8 -3 7 -24 8 -23 14 10 10 49 26 22 26 -45z m41 -185
c-14 -101 -34 -146 -25 -55 3 33 8 101 11 150 3 50 9 97 12 105 12 27 13 -114
2 -200z m44 111 c-3 -39 -11 -71 -15 -71 -11 0 -11 17 -3 99 4 38 11 58 16 53
5 -5 6 -40 2 -81z m985 31 c1 -13 -3 -20 -9 -17 -5 3 -10 23 -9 43 0 30 2 33
9 17 5 -11 9 -30 9 -43z m398 -119 c24 -127 30 -261 14 -319 -5 -20 -11 14
-20 121 -7 83 -19 181 -27 218 -18 86 -19 136 -2 119 6 -6 22 -69 35 -139z
m-4559 97 c12 0 22 -6 22 -14 0 -8 6 -17 13 -20 10 -5 10 -7 0 -12 -7 -3 -13
-12 -13 -19 0 -8 -10 -20 -22 -26 -13 -7 -27 -18 -33 -24 -12 -15 -105 -28
-129 -19 -9 3 -16 12 -16 19 0 8 -9 17 -20 20 -32 10 -25 43 13 59 68 28 123
44 142 40 11 -2 30 -4 43 -4z m2802 -35 c0 -18 -3 -40 -6 -49 -10 -27 -25 -18
-20 12 2 15 5 40 5 55 1 40 21 23 21 -18z m-293 -62 c-3 -10 -5 -2 -5 17 0 19
2 27 5 18 2 -10 2 -26 0 -35z m-167 -64 c0 -44 -4 -78 -8 -75 -8 5 -5 -45 4
-74 8 -24 24 9 24 50 -1 52 11 130 22 136 12 8 4 -232 -9 -248 -6 -7 -13 -37
-16 -67 -4 -32 -14 -63 -25 -75 -11 -12 -32 -41 -48 -66 -51 -80 -72 -87 -54
-19 5 19 14 70 21 114 7 44 15 82 19 85 3 3 11 43 18 90 7 47 19 103 27 125 8
22 14 55 15 73 0 17 2 32 5 32 3 0 5 -36 5 -81z m151 36 c12 8 12 -20 0 -43
-5 -9 -16 -42 -25 -72 l-15 -55 5 65 c7 87 16 139 21 117 3 -9 9 -15 14 -12z
m1867 -115 c5 -52 6 -102 1 -110 -9 -18 -17 41 -22 165 -5 111 9 77 21 -55z
m-4660 74 c24 -7 31 -24 9 -24 -15 0 -57 29 -42 30 6 0 20 -3 33 -6z m2578
-16 c-3 -13 -9 -49 -13 -80 -3 -32 -10 -58 -15 -58 -6 0 -8 20 -5 48 9 74 18
112 29 112 6 0 8 -10 4 -22z m1670 -103 c-10 -51 -14 -61 -15 -36 -2 50 23
175 27 136 1 -16 -4 -61 -12 -100z m523 -76 c1 -105 -11 -169 -31 -169 -7 0
-8 25 -4 73 4 39 9 110 13 157 8 114 21 78 22 -61z m-1360 114 c0 -5 -4 -17
-9 -28 -8 -18 -9 -17 -9 8 -1 15 4 27 9 27 6 0 10 -3 9 -7z m1399 -113 l-1
-45 -7 50 c-5 28 -8 66 -8 85 l0 35 9 -40 c4 -22 8 -60 7 -85z m-4862 82 c7
-10 47 -16 146 -22 75 -4 141 -11 147 -15 17 -10 1 -27 -20 -22 -12 3 -25 -3
-36 -19 -15 -20 -33 -26 -101 -36 -76 -10 -84 -10 -96 7 -11 16 -24 17 -98 13
-81 -5 -118 3 -118 27 0 11 61 65 73 65 4 0 15 7 23 15 18 17 63 10 80 -13z
m2464 -11 c0 -16 6 -31 15 -34 12 -5 12 -2 3 19 -9 18 -9 27 0 36 9 9 12 9 12
-2 0 -13 2 -13 10 0 26 41 -4 -150 -32 -204 -6 -10 -11 -68 -13 -128 -3 -117
-12 -137 -62 -138 -23 0 -31 14 -14 24 16 10 40 178 42 296 2 100 13 160 29
160 6 0 10 -13 10 -29z m2286 -29 c-12 -12 -18 8 -10 35 l8 28 4 -28 c2 -16 1
-31 -2 -35z m-2375 -200 c-21 -100 -29 -128 -41 -154 -14 -29 -30 -37 -30 -15
0 12 -59 -92 -60 -105 0 -5 5 -8 10 -8 6 0 10 7 10 15 0 8 5 15 10 15 6 0 10
9 10 19 0 11 5 23 10 26 26 16 -3 -57 -37 -95 -13 -14 -23 -28 -23 -31 0 -4
-16 -19 -36 -34 -27 -20 -47 -27 -78 -27 -22 1 -48 -3 -56 -8 -11 -7 -4 -10
25 -11 105 -3 107 -28 3 -34 -34 -3 -66 -10 -72 -16 -8 -9 13 -10 87 -6 l98 5
-38 -30 c-74 -60 -193 -98 -304 -98 -55 0 -61 12 -52 92 4 37 2 52 -8 59 -10
6 -10 9 -1 9 6 0 12 6 12 13 1 15 35 57 47 57 5 0 16 12 25 28 9 15 29 42 45
60 15 19 47 70 71 115 33 63 41 74 36 47 -4 -24 -3 -32 4 -25 6 6 12 19 14 29
1 11 7 18 12 17 12 -4 29 27 21 39 -3 6 -1 10 4 10 6 0 11 7 11 15 0 21 20 19
21 -2 0 -14 3 -12 10 5 5 13 13 21 17 18 5 -3 14 6 20 19 7 14 18 25 27 25 8
0 14 4 13 8 -4 11 57 72 71 72 6 0 11 5 11 10 0 20 20 10 25 -13 6 -21 -24
-155 -45 -202 -5 -11 -16 -38 -25 -60 -30 -70 -60 -130 -72 -143 -7 -7 -20
-26 -30 -42 -9 -17 -23 -30 -31 -30 -7 0 -10 -4 -7 -10 10 -17 25 -11 57 20
17 17 33 28 36 26 8 -9 32 14 32 30 0 21 -20 17 -21 -3 0 -10 -3 -13 -5 -6 -3
7 15 54 40 105 31 64 58 146 88 263 l43 170 3 -93 c1 -51 -2 -114 -7 -140z
m421 196 c-7 -7 -12 -8 -12 -2 0 14 12 26 19 19 2 -3 -1 -11 -7 -17z m644 -25
c-8 -21 -17 -51 -21 -67 -3 -15 -9 -26 -12 -23 -8 9 18 111 31 119 17 12 17
11 2 -29z m-869 -116 c-4 -28 -12 -55 -18 -61 -8 -8 -9 3 -3 44 4 30 7 66 7
80 -1 22 0 22 9 6 6 -11 8 -41 5 -69z m2187 26 c-10 -53 -25 -91 -31 -75 -7
18 17 112 28 112 6 0 7 -16 3 -37z m-273 -26 c-17 -17 -22 -2 -9 29 11 28 12
29 16 5 2 -13 -1 -28 -7 -34z m-1982 -112 c-12 -41 -26 -75 -30 -75 -5 0 -7 6
-4 13 2 6 11 44 20 82 9 39 19 79 23 90 6 17 7 16 10 -8 2 -15 -7 -61 -19
-102z m2358 48 c-3 -10 -5 -2 -5 17 0 19 2 27 5 18 2 -10 2 -26 0 -35z m-2331
-77 c-13 -41 -46 -101 -46 -82 0 19 43 126 51 126 4 0 2 -20 -5 -44z m2331 22
c-3 -8 -6 -5 -6 6 -1 11 2 17 5 13 3 -3 4 -12 1 -19z m-2304 -93 c-8 -22 -22
-18 -16 5 3 11 9 17 14 15 4 -3 6 -12 2 -20z m-603 1 c0 -3 -4 -8 -10 -11 -5
-3 -10 -1 -10 4 0 6 5 11 10 11 6 0 10 -2 10 -4z m386 -78 l-16 -22 0 22 c0
28 23 58 28 36 2 -7 -4 -24 -12 -36z m1792 45 c-8 -20 -64 -92 -70 -93 -16 0
-7 23 24 61 27 34 56 54 46 32z m-2231 -55 c-3 -8 -6 -5 -6 6 -1 11 2 17 5 13
3 -3 4 -12 1 -19z m-37 -44 c0 -3 -11 -19 -25 -36 -17 -20 -25 -25 -25 -13 0
8 7 18 15 21 8 4 15 12 15 20 0 8 5 14 10 14 6 0 10 -3 10 -6z m405 -74 c-3
-5 -11 -10 -16 -10 -6 0 -7 5 -4 10 3 6 11 10 16 10 6 0 7 -4 4 -10z m265 -49
c0 -8 -60 -41 -76 -41 -4 0 7 11 26 25 36 26 50 31 50 16z m-150 -41 c-37 -30
-112 -71 -122 -68 -9 3 72 67 102 80 33 14 45 7 20 -12z m-1170 -272 c20 -22
26 -38 13 -38 -10 0 -53 42 -53 52 0 15 19 8 40 -14z m115 -58 c8 -13 -1 -13
-26 0 -10 6 -19 15 -19 21 0 11 35 -5 45 -21z m90 -27 c6 -8 18 -14 26 -12 24
4 49 -12 49 -31 0 -16 -4 -17 -31 -10 -16 5 -40 18 -52 29 -12 12 -31 28 -42
37 -19 15 -19 15 9 9 17 -3 35 -13 41 -22z m154 -80 c1 18 16 23 25 8 20 -32
0 -182 -35 -266 -16 -38 -29 -75 -29 -82 0 -7 -4 -13 -9 -13 -6 0 -8 38 -5 92
3 67 10 101 24 125 19 33 15 44 -8 21 -20 -20 -16 93 5 122 l17 24 7 -24 c5
-16 7 -19 8 -7z m90 -55 c1 12 5 22 11 22 16 0 21 -42 12 -100 -4 -31 -4 -74
1 -99 13 -63 -3 -107 -63 -169 -53 -56 -67 -48 -25 14 28 42 31 54 11 54 -8 0
-16 6 -18 13 -5 13 25 186 44 252 11 38 12 39 19 15 7 -24 7 -24 8 -2z m-169
-172 c0 -56 -25 -175 -46 -215 -13 -27 -24 -54 -24 -59 0 -6 -5 -12 -11 -14
-7 -2 -7 -12 -1 -28 9 -22 11 -23 17 -7 4 9 12 17 18 17 6 0 22 12 34 27 l23
26 0 -28 c0 -21 -12 -40 -46 -71 -52 -49 -130 -98 -143 -90 -10 7 -104 -74
-96 -82 3 -4 10 0 15 8 5 8 12 11 17 7 10 -11 -18 -28 -36 -22 -7 3 -22 -5
-33 -17 -10 -13 -28 -33 -39 -45 -10 -13 -23 -23 -29 -23 -20 0 -9 41 35 131
25 51 45 98 45 105 0 8 3 14 8 14 8 0 15 11 55 91 15 31 47 77 71 103 25 26
48 57 52 69 6 21 91 114 107 116 4 1 7 -5 7 -13z m32 -168 c-7 -7 -12 -8 -12
-2 0 14 12 26 19 19 2 -3 -1 -11 -7 -17z m-252 -328 c0 -5 -4 -10 -10 -10 -5
0 -10 5 -10 10 0 6 5 10 10 10 6 0 10 -4 10 -10z m-285 -352 c-13 -40 -16
-149 -8 -295 5 -79 6 -143 3 -143 -12 0 -52 200 -57 287 -6 88 -5 95 21 133
29 44 53 54 41 18z m54 -215 c-1 -49 2 -100 6 -115 9 -36 -2 -36 -16 -2 -8 24
-2 204 7 204 2 0 3 -39 3 -87z m-136 -38 c4 -44 3 -46 -6 -22 -6 15 -14 27
-19 27 -10 0 -10 36 -1 81 l7 34 8 -35 c4 -19 9 -57 11 -85z m166 -57 c1 -5
-3 -8 -9 -8 -5 0 -10 12 -9 28 0 24 1 25 9 7 5 -11 9 -23 9 -27z m30 -98 c13
-36 38 -93 57 -128 41 -75 42 -83 8 -51 -34 31 -48 60 -79 156 -40 126 -28
145 14 23z m-51 -120 c8 -16 32 -51 55 -76 77 -86 88 -114 19 -46 -48 48 -102
120 -102 139 0 23 15 14 28 -17z m52 -31 c0 -6 -4 -7 -10 -4 -5 3 -10 11 -10
16 0 6 5 7 10 4 6 -3 10 -11 10 -16z m116 -227 c-4 -3 -10 -2 -14 4 -4 6 -32
30 -62 53 -55 44 -90 85 -90 108 0 7 39 -25 86 -72 48 -47 84 -89 80 -93z m55
73 c15 -16 25 -33 22 -37 -2 -5 -15 5 -28 20 -13 16 -42 41 -64 57 -23 15 -41
34 -41 42 0 16 67 -33 111 -82z m-278 -802 c-13 -2 -33 -2 -45 0 -13 2 -3 4
22 4 25 0 35 -2 23 -4z m17 -333 c0 -12 -8 -12 -35 0 -18 8 -17 9 8 9 15 1 27
-3 27 -9z m-821 -108 c-13 -10 -41 -26 -61 -36 -21 -9 -38 -21 -38 -25 0 -5
-11 -11 -25 -13 -31 -6 -32 -1 -2 12 12 6 47 26 77 45 59 37 88 47 49 17z
m1141 -107 c0 -11 -11 -15 -40 -15 -29 0 -40 4 -40 15 0 11 11 15 40 15 29 0
40 -4 40 -15z"/>
<path d="M5370 7694 c0 -8 5 -12 10 -9 6 3 10 10 10 16 0 5 -4 9 -10 9 -5 0
-10 -7 -10 -16z"/>
<path d="M5552 7665 c-6 -27 -9 -51 -7 -53 6 -6 26 79 22 91 -2 7 -9 -10 -15
-38z"/>
<path d="M5432 7555 c0 -16 2 -22 5 -12 2 9 2 23 0 30 -3 6 -5 -1 -5 -18z"/>
<path d="M5515 7549 c-4 -6 -5 -12 -2 -15 2 -3 7 2 10 11 7 17 1 20 -8 4z"/>
<path d="M5406 7475 c-3 -9 -6 -22 -5 -28 0 -7 5 -1 10 12 5 13 8 26 5 28 -2
2 -6 -3 -10 -12z"/>
<path d="M5696 7441 c-4 -7 -5 -15 -2 -18 9 -9 19 4 14 18 -4 11 -6 11 -12 0z"/>
<path d="M5042 7510 c0 -14 2 -19 5 -12 2 6 2 18 0 25 -3 6 -5 1 -5 -13z"/>
<path d="M4792 7410 c0 -14 2 -19 5 -12 2 6 2 18 0 25 -3 6 -5 1 -5 -13z"/>
<path d="M4001 6444 c0 -11 3 -14 6 -6 3 7 2 16 -1 19 -3 4 -6 -2 -5 -13z"/>
<path d="M3720 6155 c-18 -21 -3 -32 16 -13 10 9 12 18 6 22 -5 3 -15 -1 -22
-9z"/>
<path d="M3710 5990 c0 -5 4 -10 9 -10 6 0 13 5 16 10 3 6 -1 10 -9 10 -9 0
-16 -4 -16 -10z"/>
<path d="M2675 9915 c-68 -17 -19 -18 65 -1 56 12 60 14 25 14 -22 0 -62 -6
-90 -13z"/>
<path d="M2360 9749 c-17 -13 -18 -17 -5 -10 33 17 51 31 40 31 -5 0 -21 -10
-35 -21z"/>
<path d="M2070 9359 c0 -5 5 -7 10 -4 6 3 10 8 10 11 0 2 -4 4 -10 4 -5 0 -10
-5 -10 -11z"/>
<path d="M1937 9209 c-22 -33 -25 -40 -11 -37 15 3 51 51 53 71 2 18 -16 3
-42 -34z"/>
<path d="M1677 8633 c-4 -3 -7 -11 -7 -17 0 -6 5 -5 12 2 6 6 9 14 7 17 -3 3
-9 2 -12 -2z"/>
<path d="M7305 8580 c1 -19 11 -55 22 -80 48 -110 128 -395 138 -490 2 -14 8
-61 15 -105 8 -52 10 -128 6 -217 -3 -76 -3 -138 2 -138 11 0 54 235 60 328 2
39 8 72 11 72 9 0 -6 141 -20 193 -12 46 -4 62 11 22 21 -54 40 -200 41 -309
1 -97 2 -105 11 -66 8 38 5 187 -7 305 -10 102 -127 406 -162 419 -11 5 2 -35
27 -83 22 -43 53 -162 56 -216 2 -33 7 -91 12 -130 12 -95 -1 -132 -18 -50
-27 136 -105 356 -194 550 l-14 30 3 -35z m211 -692 c3 -53 1 -76 -4 -63 -12
27 -22 182 -10 162 5 -9 11 -54 14 -99z"/>
<path d="M1496 8412 c-3 -5 -8 -27 -10 -49 -3 -22 -10 -52 -15 -67 -6 -14 -7
-26 -2 -26 10 0 46 138 38 146 -3 3 -8 1 -11 -4z"/>
<path d="M1453 8193 c-7 -15 -12 -41 -12 -57 l1 -31 8 35 c5 19 11 45 15 58
10 30 3 28 -12 -5z"/>
<path d="M6241 8140 c0 -14 6 -36 14 -50 13 -22 14 -23 14 -5 0 11 -6 34 -14
50 -13 29 -13 29 -14 5z"/>
<path d="M6322 8135 c0 -16 2 -22 5 -12 2 9 2 23 0 30 -3 6 -5 -1 -5 -18z"/>
<path d="M5911 8094 c0 -11 3 -14 6 -6 3 7 2 16 -1 19 -3 4 -6 -2 -5 -13z"/>
<path d="M1432 8050 c0 -14 2 -19 5 -12 2 6 2 18 0 25 -3 6 -5 1 -5 -13z"/>
<path d="M6270 8046 c0 -8 4 -17 9 -20 5 -4 7 3 4 14 -6 23 -13 26 -13 6z"/>
<path d="M6276 7993 c-3 -10 5 -65 19 -121 16 -66 25 -129 25 -183 0 -45 2
-80 4 -78 9 10 14 167 6 194 -4 17 -13 63 -19 104 -13 86 -25 115 -35 84z"/>
<path d="M6321 7534 c0 -11 3 -14 6 -6 3 7 2 16 -1 19 -3 4 -6 -2 -5 -13z"/>
<path d="M6323 7430 c0 -25 2 -35 4 -22 2 12 2 32 0 45 -2 12 -4 2 -4 -23z"/>
<path d="M1671 7414 c0 -11 3 -14 6 -6 3 7 2 16 -1 19 -3 4 -6 -2 -5 -13z"/>
<path d="M6072 7312 c-16 -35 -55 -106 -63 -112 -4 -3 -10 -16 -14 -30 -5 -19
0 -15 21 15 15 22 30 42 34 45 10 7 44 100 38 105 -2 2 -9 -8 -16 -23z"/>
<path d="M1777 7195 c-4 -8 -2 -17 3 -20 6 -4 10 3 10 14 0 25 -6 27 -13 6z"/>
<path d="M1750 7174 c0 -10 5 -26 10 -34 8 -11 9 -7 4 15 -8 37 -14 45 -14 19z"/>
<path d="M6926 7022 c-6 -9 -95 -23 -148 -22 -15 0 -29 -4 -33 -10 -3 -5 -14
-10 -23 -9 -14 0 -14 2 2 8 17 6 17 8 3 14 -21 8 -122 -43 -176 -90 -24 -21
-50 -53 -58 -72 -16 -37 -8 -56 11 -28 7 9 16 17 20 17 10 0 -13 -41 -39 -70
-12 -14 -25 -40 -29 -57 -3 -18 -8 -45 -11 -60 -3 -16 -1 -34 4 -42 8 -13 15
-12 49 3 22 10 54 19 71 21 17 1 37 7 44 13 8 7 17 9 20 5 11 -10 71 -12 87
-2 10 6 -1 9 -35 10 l-50 2 45 6 c25 4 55 12 67 19 61 34 87 160 44 220 -24
34 -16 42 45 42 59 0 181 -77 170 -106 -6 -16 3 -18 23 -5 12 8 11 13 -10 30
l-24 21 30 -6 c17 -4 35 -10 40 -15 14 -10 75 -8 75 3 0 4 -4 8 -10 8 -21 0
-9 18 16 24 34 9 26 28 -14 31 -42 3 -66 23 -51 41 9 11 7 15 -5 20 -9 3 -23
4 -31 0 -8 -3 -14 0 -12 6 1 6 -11 15 -28 19 -16 4 -40 10 -51 14 -12 4 -24 2
-28 -3z m-336 -347 c11 -4 18 -11 15 -16 -8 -12 -75 42 -75 60 0 8 9 3 20 -12
11 -14 29 -29 40 -32z"/>
<path d="M5187 6899 c-42 -5 -90 -15 -105 -23 -15 -9 -40 -21 -57 -28 -23 -8
-26 -12 -13 -15 10 -3 28 3 40 11 33 23 108 19 108 -5 0 -14 -28 -11 -33 4 -4
10 -6 10 -6 0 -1 -7 -12 -13 -26 -13 -27 0 -58 -15 -87 -42 -19 -19 -30 -21
-91 -18 -25 1 -46 -5 -58 -16 -30 -27 -23 -37 20 -30 54 8 61 -10 11 -25 -25
-8 -39 -17 -36 -25 3 -7 -9 -14 -30 -17 -19 -3 -41 -13 -49 -21 -14 -13 -11
-14 19 -9 18 3 36 1 40 -5 7 -11 -53 -42 -82 -42 -39 0 -32 -19 10 -31 38 -10
47 -9 81 9 36 20 38 20 32 2 -3 -11 -1 -18 7 -17 70 2 108 -16 122 -60 4 -13
14 -23 22 -23 8 0 14 -4 14 -10 0 -5 14 -10 30 -10 20 0 30 5 30 15 0 8 5 15
10 15 6 0 10 -9 10 -20 0 -11 6 -20 13 -20 8 0 14 12 14 30 0 16 -4 27 -8 24
-4 -2 -10 0 -14 6 -3 5 -18 10 -33 11 l-27 1 25 8 c23 7 23 8 3 9 -12 1 -29 4
-39 8 -12 4 -15 3 -10 -5 4 -8 2 -10 -7 -6 -8 3 -19 16 -26 30 -6 13 -22 29
-36 34 -14 5 -25 12 -25 14 0 3 8 2 18 -1 14 -6 15 -4 4 9 -10 12 -9 18 3 28
8 7 15 18 15 24 0 7 16 20 35 29 l35 17 0 -30 c0 -17 9 -50 21 -75 17 -36 31
-49 72 -69 107 -50 206 2 231 121 5 22 1 44 -13 75 l-20 43 25 3 c29 4 102
-29 144 -65 35 -29 51 -90 28 -107 -8 -6 -21 -22 -28 -36 -12 -22 -12 -24 2
-12 13 10 18 9 29 -4 9 -11 22 -14 43 -10 110 19 123 29 87 65 -12 12 -21 30
-21 41 0 36 -41 99 -98 151 -68 61 -96 74 -131 60 -15 -6 -45 -6 -71 -2 -49 9
-25 16 40 12 28 -2 33 0 22 10 -6 7 -29 12 -49 11 -20 -2 -39 1 -42 6 -10 15
-62 19 -144 11z m103 -29 c11 -7 7 -10 -18 -10 -20 0 -31 4 -27 10 8 13 26 13
45 0z m-345 -309 c-3 -6 -11 -11 -17 -11 -6 0 -6 6 2 15 14 17 26 13 15 -4z"/>
<path d="M7025 6760 c-3 -5 -1 -10 4 -10 6 0 11 5 11 10 0 6 -2 10 -4 10 -3 0
-8 -4 -11 -10z"/>
<path d="M6972 6748 c-18 -18 -14 -38 8 -38 15 0 20 7 20 25 0 27 -9 32 -28
13z"/>
<path d="M6920 6702 c0 -5 9 -12 21 -15 13 -3 19 -1 16 6 -5 15 -37 22 -37 9z"/>
<path d="M6888 6673 c7 -3 16 -2 19 1 4 3 -2 6 -13 5 -11 0 -14 -3 -6 -6z"/>
<path d="M3600 6530 c0 -5 5 -10 11 -10 5 0 7 5 4 10 -3 6 -8 10 -11 10 -2 0
-4 -4 -4 -10z"/>
<path d="M5477 6506 c-30 -14 -36 -21 -26 -32 13 -16 39 -19 39 -5 0 5 8 11
18 13 13 2 16 9 13 23 -6 20 -7 20 -44 1z"/>
<path d="M3586 6451 c-4 -7 -5 -15 -2 -18 9 -9 19 4 14 18 -4 11 -6 11 -12 0z"/>
<path d="M3484 6065 c-9 -14 -14 -28 -11 -32 7 -6 46 36 47 50 0 16 -20 6 -36
-18z"/>
<path d="M3431 5984 c0 -11 3 -14 6 -6 3 7 2 16 -1 19 -3 4 -6 -2 -5 -13z"/>
<path d="M6510 5983 c0 -34 12 -63 26 -63 21 0 28 22 10 32 -9 5 -16 15 -16
23 0 8 -4 17 -10 20 -5 3 -10 -2 -10 -12z"/>
<path d="M3888 5943 c6 -2 18 -2 25 0 6 3 1 5 -13 5 -14 0 -19 -2 -12 -5z"/>
<path d="M6606 5806 c3 -9 13 -16 22 -16 8 0 13 1 11 3 -2 1 -12 9 -22 16 -15
12 -17 12 -11 -3z"/>
<path d="M4195 5730 c3 -5 14 -10 23 -10 15 0 15 2 2 10 -20 13 -33 13 -25 0z"/>
<path d="M4080 5696 c0 -8 -6 -17 -12 -19 -9 -4 -10 -8 -2 -14 6 -4 14 -15 17
-23 3 -8 6 4 6 28 1 23 -1 42 -4 42 -3 0 -5 -6 -5 -14z"/>
<path d="M6148 5611 c-12 -12 -14 -21 -7 -28 13 -13 55 -5 70 13 27 33 -32 47
-63 15z"/>
<path d="M4310 5561 c0 -5 7 -11 15 -15 9 -3 15 0 15 9 0 8 -7 15 -15 15 -8 0
-15 -4 -15 -9z"/>
<path d="M6200 5231 c-44 -7 -198 -55 -232 -72 -10 -5 -25 -9 -33 -9 -8 0 -15
-4 -15 -10 0 -5 -8 -10 -19 -10 -10 0 -36 -8 -57 -17 -22 -9 -57 -22 -79 -28
-30 -7 -41 -16 -43 -32 -3 -19 1 -23 21 -23 14 0 27 -7 31 -15 3 -8 12 -15 21
-15 8 0 15 -4 15 -9 0 -5 25 -24 55 -41 30 -17 61 -37 68 -44 89 -87 204 -133
306 -122 90 11 161 27 161 37 0 5 7 9 15 9 8 0 31 17 50 37 33 35 56 91 79
195 3 14 18 40 32 57 14 17 24 38 21 46 -12 30 -89 58 -167 61 -41 1 -100 4
-130 7 -30 3 -75 2 -100 -2z m145 -164 c-6 -30 -17 -34 -114 -41 -78 -6 -209
5 -234 21 -26 16 27 27 164 34 84 5 154 11 156 13 12 11 31 -8 28 -27z m45 13
c0 -5 -5 -10 -11 -10 -5 0 -7 5 -4 10 3 6 8 10 11 10 2 0 4 -4 4 -10z"/>
<path d="M7760 5030 c0 -29 4 -40 15 -40 8 0 15 -4 15 -9 0 -4 14 -22 30 -40
24 -25 38 -31 72 -31 l41 0 -7 61 c-3 34 -6 70 -6 80 0 17 -9 19 -80 19 l-80
0 0 -40z"/>
<path d="M7280 4673 c0 -64 -3 -83 -14 -83 -20 0 -26 -24 -15 -62 5 -18 8 -51
7 -73 -2 -34 0 -40 22 -45 14 -4 42 -1 64 7 21 7 50 13 63 13 31 0 104 73 79
78 -11 2 -16 15 -16 43 0 39 -5 43 -44 39 -16 -1 -18 4 -14 39 2 23 -1 42 -7
43 -5 0 -17 1 -25 2 -10 1 -16 14 -18 38 -3 34 -5 36 -43 40 l-39 4 0 -83z
m57 32 c0 -8 -4 -15 -9 -15 -10 0 -11 14 -1 23 9 10 10 9 10 -8z m123 -166 c0
-6 -4 -7 -10 -4 -5 3 -10 11 -10 16 0 6 5 7 10 4 6 -3 10 -11 10 -16z"/>
<path d="M5154 4583 c3 -8 9 -27 13 -41 7 -29 16 -42 51 -74 12 -12 22 -30 22
-40 0 -10 7 -21 15 -24 8 -4 15 -12 15 -19 0 -7 19 -34 43 -61 23 -26 41 -52
39 -57 -6 -19 9 -46 23 -41 10 4 12 0 8 -15 -3 -13 -1 -21 7 -21 7 0 21 -12
32 -26 11 -14 26 -23 32 -21 7 3 13 -4 13 -15 3 -30 33 -117 44 -123 5 -4 9
-14 9 -24 0 -10 18 -38 41 -62 22 -24 54 -67 71 -96 18 -28 43 -57 56 -64 13
-7 28 -22 34 -32 8 -15 7 -18 -3 -11 -7 4 -3 -9 9 -30 12 -20 22 -47 22 -59 0
-18 2 -19 10 -7 9 13 11 13 20 0 5 -8 10 -32 10 -52 0 -34 20 -68 41 -68 5 0
9 -9 9 -19 0 -11 15 -34 32 -52 20 -19 28 -34 21 -36 -16 -6 -5 -33 13 -33 8
0 14 -10 14 -25 0 -14 5 -25 11 -25 5 0 7 -4 4 -10 -3 -5 -1 -10 4 -10 6 0 11
-7 11 -15 0 -9 7 -18 16 -22 8 -3 13 -11 10 -18 -2 -7 2 -21 9 -32 8 -10 15
-26 15 -35 0 -10 4 -18 8 -18 8 0 45 -66 46 -82 1 -3 11 -15 23 -26 13 -10 30
-36 38 -56 8 -20 19 -36 23 -36 10 0 62 -103 62 -123 0 -15 11 -22 33 -18 4 0
7 -12 7 -29 0 -21 5 -30 16 -30 20 0 44 -24 44 -44 0 -8 5 -18 10 -21 6 -3 10
-17 10 -30 0 -12 7 -26 16 -29 8 -3 12 -10 9 -16 -4 -6 1 -7 11 -3 13 5 15 2
10 -14 -5 -16 -2 -19 16 -19 13 1 22 -4 21 -10 -1 -6 9 -17 22 -24 14 -7 25
-17 25 -22 0 -4 7 -8 16 -8 15 0 16 -9 9 -67 -10 -93 -10 -93 -1 -135 6 -27
14 -38 30 -40 15 -2 24 -13 30 -40 5 -21 13 -38 18 -38 4 0 8 -18 8 -41 0 -35
3 -40 17 -35 10 4 14 4 11 0 -10 -9 21 -66 31 -59 5 2 8 -1 8 -8 -2 -33 17
-97 29 -97 7 0 16 -9 19 -20 3 -11 11 -20 16 -20 6 0 8 -4 5 -9 -4 -5 9 -29
27 -53 19 -24 37 -56 41 -71 3 -15 11 -27 17 -27 6 0 7 -4 4 -10 -3 -5 2 -21
11 -35 9 -14 13 -25 8 -25 -5 0 1 -7 13 -15 14 -10 23 -30 28 -65 6 -46 14
-55 40 -50 6 1 6 -3 -1 -10 -16 -16 -5 -70 15 -70 14 0 17 -7 14 -33 -3 -26
-1 -28 6 -12 9 18 10 17 10 -9 1 -20 -3 -27 -13 -23 -10 4 -8 -11 10 -55 27
-70 34 -80 34 -50 0 40 23 19 46 -40 3 -10 13 -18 20 -18 8 0 14 -7 14 -16 0
-9 8 -23 19 -32 25 -23 61 -141 61 -202 0 -39 -4 -53 -20 -62 -15 -10 -20 -24
-20 -60 0 -26 -7 -66 -16 -89 -15 -35 -16 -67 -10 -230 5 -132 4 -189 -3 -189
-18 0 -14 -117 4 -124 11 -4 15 -21 15 -61 0 -41 4 -55 14 -55 8 0 16 -6 19
-12 2 -8 8 -9 13 -4 5 5 4 11 -3 13 -16 6 -17 59 -2 102 10 28 15 31 50 31 35
0 39 -3 39 -25 0 -22 4 -25 40 -25 l40 0 0 40 0 40 80 0 c64 0 80 3 80 15 0
12 16 15 80 15 47 0 80 4 80 10 0 6 18 10 40 10 29 0 40 4 40 15 0 11 11 15
40 15 36 0 40 3 40 25 0 25 1 25 78 25 78 0 110 -9 98 -28 -4 -7 1 -9 13 -7
15 3 19 -1 16 -16 -2 -11 0 -17 6 -14 5 4 9 1 9 -4 0 -6 3 -10 8 -9 19 5 82
-14 90 -28 10 -18 162 -34 162 -16 0 5 16 13 36 17 36 6 65 19 94 42 23 18
116 21 105 4 -9 -15 14 -23 72 -26 47 -2 56 0 60 16 3 11 9 19 13 19 4 0 8 6
7 13 -1 31 4 48 12 43 5 -3 12 13 15 37 4 23 10 65 14 92 9 62 -3 120 -36 165
-47 64 -118 122 -162 133 -14 3 -56 15 -95 26 -38 11 -71 20 -73 20 -12 0
-161 34 -177 41 -11 5 -38 14 -60 21 -49 14 -115 49 -135 70 -8 9 -25 19 -37
23 -13 4 -23 14 -23 22 0 8 -5 14 -11 14 -6 0 -16 6 -23 12 -7 7 -30 27 -51
43 -96 77 -121 99 -133 116 -9 13 -52 199 -52 226 0 2 7 3 15 3 8 0 16 5 16
10 1 6 2 15 3 21 2 18 46 32 46 15 0 -8 9 -16 21 -19 12 -3 18 -10 15 -15 -3
-5 8 -12 26 -14 36 -6 64 16 74 58 10 41 -2 232 -20 300 -8 32 -16 74 -18 92
-1 17 -6 32 -10 32 -4 0 -8 8 -8 18 0 9 -11 29 -25 44 -14 15 -25 32 -25 37 0
14 -78 162 -96 182 -8 8 -14 21 -14 27 0 7 -7 12 -15 12 -8 0 -15 3 -15 8 0 4
-9 18 -19 31 -17 22 -19 23 -49 7 -18 -9 -32 -21 -32 -26 0 -6 -12 -16 -26
-22 -18 -9 -24 -17 -20 -32 3 -11 0 -26 -6 -33 -8 -10 -6 -13 6 -13 11 0 16
-8 15 -27 0 -16 -3 -22 -6 -15 -6 16 -309 18 -315 1 -3 -8 -15 -6 -38 6 -42
22 -61 40 -52 50 4 4 3 6 -3 4 -19 -5 -65 24 -65 42 0 13 -9 19 -37 21 -22 2
-37 8 -36 14 1 8 -14 11 -42 11 -29 -1 -45 -6 -45 -14 0 -10 -22 -13 -81 -13
l-81 0 4 56 c3 30 1 57 -3 60 -4 2 -5 13 -2 24 4 16 0 20 -21 20 -24 0 -26 4
-26 40 0 30 4 40 16 40 11 0 15 6 11 20 -3 11 -1 20 4 20 15 0 10 30 -6 36 -8
4 -15 18 -14 33 0 14 3 20 6 13 2 -6 9 -9 15 -6 5 3 2 14 -8 25 -9 10 -14 20
-11 20 4 1 12 2 19 3 6 0 16 16 20 34 5 18 18 49 30 70 19 35 32 132 16 132
-4 0 -13 -7 -22 -15 -18 -19 -26 -19 -26 -1 0 10 -13 16 -37 18 -28 2 -39 8
-41 22 -3 11 -10 25 -16 32 -8 8 -12 44 -10 110 3 122 2 116 13 109 6 -3 13
21 17 56 4 37 12 63 20 66 8 3 14 20 14 40 0 39 15 73 33 73 8 0 8 -3 -1 -9
-11 -7 -11 -9 2 -14 13 -5 16 1 16 33 0 29 4 40 15 40 18 0 20 94 5 200 -5 36
-10 113 -12 172 -2 60 -6 108 -10 108 -5 0 -8 35 -8 78 1 55 6 88 20 117 11
22 19 59 20 83 0 34 -3 42 -19 42 -14 0 -20 10 -25 43 -9 52 -9 53 -2 102 l6
40 -12 -32 c-6 -18 -16 -33 -22 -33 -6 0 -17 -13 -24 -30 -14 -30 -35 -39 -47
-20 -3 6 -17 10 -31 10 -17 0 -24 -5 -24 -20 0 -11 -4 -20 -9 -20 -5 0 -12
-13 -16 -30 -7 -33 -52 -70 -83 -70 -12 0 -24 -4 -27 -10 -3 -5 -28 -10 -55
-10 -26 0 -50 -4 -52 -10 -4 -14 -231 -15 -236 -1 -2 6 -15 11 -28 11 -13 0
-24 3 -24 8 0 8 -34 23 -97 42 -24 7 -43 17 -43 22 0 4 -11 8 -25 8 -14 0 -25
4 -25 8 0 5 -23 15 -51 22 -28 8 -61 24 -74 36 -15 14 -32 20 -44 17 -13 -3
-23 2 -30 16 -7 12 -21 21 -31 21 -11 0 -28 9 -37 20 -10 11 -24 20 -33 20 -8
0 -26 9 -40 20 -14 11 -31 20 -37 20 -7 0 -22 9 -33 20 -11 11 -29 20 -40 20
-21 0 -52 15 -82 38 -9 8 -22 11 -27 7 -6 -3 -11 2 -11 13 0 12 -9 22 -21 25
-15 4 -19 2 -15 -10z m741 -924 c22 -14 55 -32 73 -40 17 -8 32 -19 32 -25 0
-6 12 -16 26 -23 15 -6 35 -23 46 -36 10 -13 27 -27 38 -30 11 -4 18 -11 14
-16 -3 -6 3 -13 15 -16 12 -3 21 -11 21 -18 0 -8 9 -17 20 -20 11 -3 20 -10
20 -15 0 -4 16 -25 35 -46 19 -22 35 -45 35 -51 0 -7 6 -13 13 -13 7 0 23 -18
37 -40 14 -22 30 -40 37 -40 7 0 13 -7 13 -15 0 -19 60 -134 83 -160 10 -11
20 -30 23 -42 4 -13 10 -23 15 -23 18 0 -9 -36 -28 -37 -12 -1 -25 13 -40 46
-13 25 -23 52 -23 59 0 7 -11 12 -24 12 -25 0 -56 36 -56 65 0 8 -7 15 -16 15
-8 0 -13 4 -9 9 3 6 -4 15 -15 21 -12 6 -18 16 -13 23 4 8 1 7 -10 -1 -14 -12
-16 -11 -14 7 1 12 5 21 9 21 4 0 8 5 8 11 0 6 -6 9 -14 6 -19 -8 -130 108
-122 128 4 11 -2 15 -19 15 -19 0 -25 5 -25 21 0 19 -4 21 -40 16 -37 -5 -40
-3 -40 19 0 17 -6 24 -20 24 -11 0 -20 7 -20 15 0 8 -9 15 -20 15 -15 0 -20 7
-20 25 0 16 -6 25 -15 25 -8 0 -15 3 -15 8 0 15 -59 72 -74 72 -20 0 -21 29
-2 36 8 3 12 12 9 20 -7 18 18 9 72 -27z m443 -631 c8 -31 8 -38 -4 -38 -10 0
-14 12 -14 42 0 48 4 47 18 -4z m542 -1418 c0 -24 -15 -27 -24 -4 -3 8 -2 12
4 9 6 -3 10 -1 10 4 0 6 2 11 5 11 3 0 5 -9 5 -20z m30 -94 c0 -8 -4 -18 -10
-21 -5 -3 -10 3 -10 14 0 12 5 21 10 21 6 0 10 -6 10 -14z"/>
<path d="M6150 3352 c0 -11 38 -42 52 -42 6 0 1 11 -12 25 -23 25 -40 32 -40
17z"/>
<path d="M8804 4323 c-3 -10 -11 -30 -16 -46 -6 -15 -8 -41 -4 -57 4 -21 2
-30 -8 -30 -9 0 -16 -25 -23 -82 -7 -58 -10 -70 -12 -40 0 23 -5 42 -11 42
-11 0 -14 -141 -12 -605 l0 -280 32 -87 c18 -49 35 -88 39 -88 11 0 41 -68 41
-93 0 -27 48 -127 61 -127 5 0 9 -5 9 -11 0 -16 66 -111 105 -152 20 -20 48
-40 63 -43 26 -6 46 -15 112 -50 42 -21 169 -27 177 -8 3 8 9 11 14 8 5 -3 9
-1 9 5 0 5 32 15 70 22 39 7 70 16 70 20 0 15 72 23 80 9 7 -11 12 -10 25 3 9
10 30 17 46 17 16 0 39 8 50 18 10 11 31 25 46 33 33 17 73 56 73 71 0 6 -3 9
-6 5 -4 -3 -14 4 -24 16 -19 23 -16 51 5 43 13 -5 26 15 24 37 0 7 -4 3 -9 -8
-8 -19 -9 -19 -9 2 -1 12 3 23 7 25 5 2 12 60 15 131 l7 127 -53 0 c-48 0 -54
-3 -81 -36 -18 -23 -31 -32 -36 -25 -7 13 -40 4 -40 -10 0 -5 -18 -9 -40 -9
l-40 0 0 120 0 120 -60 0 c-57 0 -60 1 -60 25 0 23 -4 25 -40 25 -29 0 -40 4
-40 15 0 11 -11 15 -38 15 -21 0 -43 5 -50 12 -7 7 -12 8 -12 4 0 -5 -10 4
-22 19 -19 24 -23 43 -24 114 -1 47 -5 123 -9 169 -6 78 -8 82 -31 82 -20 0
-24 5 -24 30 0 17 5 30 10 30 6 0 10 5 10 10 0 6 -11 10 -25 10 -25 0 -31 13
-26 63 2 12 -5 17 -23 17 -24 0 -26 4 -26 40 0 29 -4 40 -15 40 -11 0 -15 11
-15 40 0 40 0 40 -38 40 -33 0 -45 7 -80 46 -32 35 -42 53 -42 80 0 23 -5 34
-14 34 -8 0 -17 9 -21 19 -3 11 -13 22 -21 25 -8 3 -12 10 -9 16 3 5 4 10 0
10 -3 0 -8 -8 -11 -17z m1016 -1229 c0 -11 -6 -14 -20 -9 -12 4 -20 2 -20 -5
0 -6 -4 -8 -10 -5 -22 14 -10 35 20 35 21 0 30 -5 30 -16z m-180 -184 c0 -22
-4 -40 -10 -40 -5 0 -10 18 -10 40 0 22 5 40 10 40 6 0 10 -18 10 -40z m40 -8
c0 -30 -20 -82 -32 -82 -5 0 -8 7 -8 15 0 8 5 15 10 15 6 0 10 18 10 40 0 22
5 40 10 40 6 0 10 -13 10 -28z m120 -14 c-1 -24 -21 -58 -36 -58 -4 0 -3 5 4
12 7 7 12 25 12 40 0 15 5 28 10 28 6 0 10 -10 10 -22z m-47 -29 c-10 -16 -21
-29 -26 -29 -5 0 -4 7 3 15 7 9 10 19 6 23 -4 4 -16 -3 -26 -15 -10 -13 -22
-23 -26 -23 -4 0 -3 5 4 12 7 7 12 20 12 29 0 12 9 19 28 21 40 5 44 0 25 -33z
m-133 -24 c0 -8 -4 -15 -10 -15 -5 0 -10 7 -10 15 0 8 5 15 10 15 6 0 10 -7
10 -15z"/>
<path d="M3430 4150 c-7 -4 -10 -13 -6 -19 5 -7 1 -9 -8 -5 -9 3 -16 1 -16 -5
0 -6 10 -11 23 -12 l22 0 -22 -9 c-15 -6 -20 -15 -16 -29 3 -12 10 -21 16 -21
5 0 16 -8 23 -17 11 -16 14 -15 28 19 9 21 16 48 16 62 0 34 -32 53 -60 36z"/>
<path d="M7813 4011 c-12 -10 -19 -21 -16 -25 4 -3 1 -6 -5 -6 -7 0 -12 -7
-12 -15 0 -8 -4 -15 -10 -15 -5 0 -10 -9 -10 -20 0 -13 9 -22 25 -26 15 -4 28
-16 31 -31 4 -13 8 -22 11 -20 2 2 31 -23 64 -55 51 -51 64 -60 89 -56 21 3
31 0 35 -11 11 -34 155 -75 155 -45 0 30 -20 51 -65 68 -25 10 -45 24 -45 32
0 8 -4 14 -10 14 -5 0 -10 15 -10 34 0 26 -9 43 -40 75 -22 22 -45 41 -51 41
-7 0 -20 9 -30 21 -9 11 -21 20 -26 20 -23 -1 -52 12 -55 24 -2 10 -8 9 -25
-4z"/>
<path d="M2305 3330 c-3 -5 -1 -10 4 -10 6 0 11 5 11 10 0 6 -2 10 -4 10 -3 0
-8 -4 -11 -10z"/>
<path d="M8001 3269 c-42 -22 -51 -35 -51 -78 0 -24 7 -40 28 -57 36 -32 49
-29 43 9 -2 12 34 8 47 -5 9 -9 12 -3 12 29 0 24 -7 48 -15 57 -8 8 -15 26
-15 40 0 30 -3 30 -49 5z"/>
<path d="M3200 2790 c0 -5 24 -10 53 -10 37 0 48 3 37 10 -20 13 -90 13 -90 0z"/>
<path d="M7904 2749 c-3 -6 0 -16 6 -24 9 -11 9 -18 -4 -30 -20 -21 -20 -31 0
-39 24 -9 94 17 94 35 0 19 23 31 45 23 9 -4 15 0 15 9 0 11 -11 15 -37 15
-21 -1 -55 4 -76 10 -23 6 -39 6 -43 1z"/>
<path d="M7227 2680 c-36 -19 -107 -28 -107 -12 0 4 -32 5 -70 4 -45 -2 -76 1
-85 8 -12 10 -18 10 -30 0 -8 -6 -18 -9 -23 -6 -5 3 -25 -8 -43 -24 l-34 -29
27 -26 c18 -17 39 -25 61 -25 22 0 37 -6 41 -16 3 -8 10 -13 15 -9 6 3 25 -10
43 -28 30 -29 41 -34 92 -36 32 -1 68 -6 81 -11 13 -5 26 -6 29 -3 3 3 9 -3
13 -13 4 -10 23 -35 42 -56 20 -20 55 -57 78 -82 23 -25 44 -46 46 -46 8 0 5
40 -4 45 -5 4 -7 10 -4 15 3 5 -15 30 -40 56 -45 45 -46 49 -43 98 2 38 0 50
-10 48 -8 -1 -11 2 -7 8 3 5 2 10 -2 10 -14 0 -8 63 8 88 12 20 12 24 -1 32
-8 5 -10 10 -5 10 10 0 -15 20 -25 20 -3 0 -22 -9 -43 -20z m28 -10 c3 -6 -1
-7 -9 -4 -18 7 -21 14 -7 14 6 0 13 -4 16 -10z"/>
<path d="M1860 2678 c-19 -5 -52 -14 -72 -19 -21 -5 -38 -15 -38 -20 0 -12 31
-8 143 18 37 9 67 20 67 25 0 11 -56 9 -100 -4z"/>
<path d="M7265 2280 c-3 -5 3 -10 15 -10 12 0 18 5 15 10 -3 6 -10 10 -15 10
-5 0 -12 -4 -15 -10z"/>
<path d="M7180 2212 c-6 -2 -8 -8 -4 -13 7 -12 104 -12 104 0 0 9 -80 19 -100
13z"/>
<path d="M7820 1940 c0 -5 5 -10 11 -10 5 0 7 5 4 10 -3 6 -8 10 -11 10 -2 0
-4 -4 -4 -10z"/>
<path d="M8080 1314 c0 -11 -11 -30 -25 -42 -14 -12 -25 -26 -25 -32 0 -5 -13
-10 -30 -10 -28 0 -30 -2 -30 -37 0 -45 12 -66 37 -68 43 -5 73 -23 73 -44 0
-6 13 -11 29 -11 17 0 32 -4 36 -9 3 -6 26 -20 50 -32 25 -12 45 -26 45 -31 0
-4 18 -8 40 -8 36 0 40 2 40 26 0 25 2 25 63 24 143 -3 177 -1 177 15 0 9 -10
15 -22 16 -47 1 -64 9 -92 40 -27 31 -28 33 -10 40 18 7 14 9 -18 13 -7 0 -14
16 -16 34 -2 17 -8 32 -13 32 -6 0 -7 5 -4 10 4 6 3 10 -2 9 -18 -5 -63 25
-63 43 0 15 -8 18 -56 18 -36 0 -61 5 -71 15 -10 11 -30 15 -64 13 -42 -3 -49
-6 -49 -24z"/>
<path d="M8778 1152 c-25 -3 -28 -7 -28 -43 0 -21 5 -39 10 -39 6 0 10 -21 10
-48 0 -37 5 -52 22 -66 14 -13 23 -15 26 -8 2 7 17 12 33 12 24 0 29 -4 29
-25 0 -16 -6 -25 -15 -25 -8 0 -15 -4 -15 -9 0 -5 7 -16 15 -25 8 -8 15 -22
15 -30 0 -12 10 -16 40 -16 28 0 40 4 40 14 0 8 -6 17 -12 19 -10 4 -10 6 0 6
8 1 12 20 12 61 l0 60 -40 0 -40 0 0 40 c0 31 4 40 18 40 16 1 16 1 0 11 -11
6 -18 22 -18 38 0 26 -4 29 -37 32 -21 2 -50 3 -65 1z"/>
<path d="M5040 1110 c0 -6 -33 -10 -80 -10 -64 0 -80 -3 -80 -15 0 -9 -9 -15
-25 -15 -22 0 -25 -4 -25 -40 0 -38 -2 -40 -30 -40 -30 0 -30 -1 -29 -52 0
-29 3 -47 6 -40 8 21 23 13 23 -13 0 -25 1 -25 80 -25 47 0 80 4 80 10 0 6 18
10 40 10 30 0 40 4 40 16 0 14 10 15 80 9 77 -7 80 -6 80 14 0 18 6 21 40 21
22 0 40 5 40 10 0 6 18 10 40 10 29 0 40 4 40 15 0 8 7 15 15 15 21 0 21 76
-1 84 -8 3 -12 10 -9 16 4 6 -24 10 -79 10 -51 0 -86 4 -86 10 0 6 -33 10 -80
10 -47 0 -80 -4 -80 -10z"/>
<path d="M8953 710 c0 -25 2 -35 4 -22 2 12 2 32 0 45 -2 12 -4 2 -4 -23z"/>
</g>
</svg>
